<svg xmlns="http://www.w3.org/2000/svg" viewBox="0 0 56 56" fill="none">
  <defs>
    <linearGradient id="fg" x1="0" y1="0" x2="0" y2="1">
      <stop offset="0%" stop-color="#FBBF24" />
      <stop offset="100%" stop-color="#D97706" />
    </linearGradient>
  </defs>
  <!-- Dome -->
  <path d="M28 12C28 12 20 12 14 24C10 31 8 38 8 42L48 42C48 38 46 31 42 24C36 12 28 12 28 12Z" fill="url(#fg)" />
  <!-- Spire -->
  <path d="M28 4L28 12M26 6C26 4 28 2 28 2C28 2 30 4 30 6" stroke="#D97706" stroke-width="2" stroke-linecap="round" />
  <!-- Base -->
  <rect x="4" y="42" width="48" height="4" rx="1" fill="url(#fg)" />
  <!-- Minarets -->
  <rect x="6" y="28" width="3" height="14" rx="1" fill="#D97706" opacity="0.7" />
  <rect x="47" y="28" width="3" height="14" rx="1" fill="#D97706" opacity="0.7" />
  <ellipse cx="7.5" cy="27" rx="2.5" ry="2" fill="#D97706" opacity="0.7" />
  <ellipse cx="48.5" cy="27" rx="2.5" ry="2" fill="#D97706" opacity="0.7" />
  <!-- Arch -->
  <path d="M23 42L23 34C23 30 28 28 33 34L33 42" fill="#B45309" opacity="0.4" />
</svg>
